<?xml version="1.0" encoding="utf-8"?>
<!-- Generator: Adobe Illustrator 16.0.1, SVG Export Plug-In . SVG Version: 6.00 Build 0)  -->
<!DOCTYPE svg PUBLIC "-//W3C//DTD SVG 1.1//EN" "http://www.w3.org/Graphics/SVG/1.1/DTD/svg11.dtd">
<svg version="1.1" id="Layer_1" xmlns="http://www.w3.org/2000/svg" xmlns:xlink="http://www.w3.org/1999/xlink" x="0px" y="0px"
	 width="1700.79px" height="1700.79px" viewBox="0 0 1700.79 1700.79" enable-background="new 0 0 1700.79 1700.79"
	 xml:space="preserve">
<g>
	<path fill-rule="evenodd" clip-rule="evenodd" fill="#BDC5C4" d="M1371.58,141.733c-346.849,0-694.919,0-1041.768,0
		c-123.954,0-188.08,66.093-188.08,189.711c0,172.576,0,345.152,0,518.951c0,172.576,0,349.43,0,523.228
		c0,119.947,65.95,185.434,181.975,185.434c350.512,0,698.583,0,1047.874,0c120.895,0,187.476-65.486,187.476-186.67
		c0-349.415,0-695.79,0-1045.232C1559.056,207.826,1492.475,141.733,1371.58,141.733z M1256.778,302.676
		c140.461,0,140.461,0,140.461,140.753c0,137.082,0,137.082-138.02,137.082c-139.227,0-139.227,0-139.227-139.531
		C1119.993,302.676,1119.993,302.676,1256.778,302.676z M851.307,575.009c147.79,0,274.805,127.896,272.362,275.387
		c-1.233,151.756-127.015,276.599-277.249,274.15c-148.997-2.447-274.79-129.105-271.128-276.598
		C578.957,698.627,703.53,575.009,851.307,575.009z"/>
</g>
</svg>
