<?xml version="1.0" encoding="utf-8"?>
<!-- Generator: Adobe Illustrator 16.0.1, SVG Export Plug-In . SVG Version: 6.00 Build 0)  -->
<!DOCTYPE svg PUBLIC "-//W3C//DTD SVG 1.1//EN" "http://www.w3.org/Graphics/SVG/1.1/DTD/svg11.dtd">
<svg version="1.1" id="Layer_1" xmlns="http://www.w3.org/2000/svg" xmlns:xlink="http://www.w3.org/1999/xlink" x="0px" y="0px"
	 width="1700.79px" height="1700.79px" viewBox="0 0 1700.79 1700.79" enable-background="new 0 0 1700.79 1700.79"
	 xml:space="preserve">
<g>
	<path fill-rule="evenodd" clip-rule="evenodd" fill="#BDC5C4" d="M141.733,1403.232c105.745,8.227,208.38-10.758,304.794-63.912
		c43.542-23.414,82.937-51.892,122.332-89.858c-46.132-1.265-88.12-15.188-126.479-38.602
		c-65.312-40.496-111.446-104.412-139.438-190.473c-6.22-18.983-6.22-18.983,10.886-17.719c46.652,5.696,80.864,4.431,107.301-8.225
		c-25.4-10.757-49.244-16.454-68.942-32.273c-97.451-65.813-149.286-167.692-158.099-304.377
		c-1.036-15.818,2.593-17.718,14.515-10.758c34.211,23.415,71.533,32.906,114.556,37.969c-18.661-20.249-34.729-36.701-49.244-54.42
		c-80.863-106.312-100.042-274.635-46.132-404.359c7.257-17.718,9.848-17.718,19.697-3.797
		C383.806,414.167,553.309,529.97,757.542,569.835c20.734,5.062,43.542,5.062,64.795,10.758
		c14.514,2.532,16.068-5.696,13.996-18.982c-21.253-149.975,36.285-298.683,145.138-373.353
		c110.931-79.1,255.034-54.42,344.19,51.89c10.367,10.758,20.216,13.288,32.139,9.493c54.945-15.188,106.262-39.868,154.47-74.039
		c4.147-1.266,7.257-3.798,12.441-9.492c-20.735,84.796-62.203,147.443-123.369,197.434c56.499-6.327,107.3-27.21,157.58-49.99
		c1.035,8.226-4.146,13.288-7.258,20.248c-34.212,56.953-74.125,107.576-121.296,151.24c-8.811,8.226-10.885,15.187-10.885,28.476
		c3.63,261.979-64.794,494.849-201.64,697.344c-128.553,184.144-292.872,296.149-488.293,334.117
		c-207.343,39.235-402.246-2.531-581.597-137.949C145.881,1404.497,143.289,1403.232,141.733,1403.232z"/>
</g>
</svg>
