<?xml version="1.0"?>
<svg xmlns="http://www.w3.org/2000/svg" xmlns:xlink="http://www.w3.org/1999/xlink" version="1.1" id="Layer_1" x="0px" y="0px" viewBox="0 0 512 512" style="enable-background:new 0 0 512 512;" xml:space="preserve" width="512px" height="512px"><g><g>
	<g>
		<path d="M442.06,64.032c-2.264-0.148-4.104,1.552-4.232,3.752l-24.18,408.024C412.668,491.356,399.2,504,383.624,504H129.712    c-15.58,0-29.048-12.644-30.024-28.176L75.5,67.76c-0.132-2.2-1.992-3.86-4.232-3.752c-2.2,0.132-3.884,2.024-3.752,4.232    l24.188,408.072c1.24,19.68,18.288,35.688,38.008,35.688H383.62c19.716,0,36.768-16.008,38.012-35.696l24.18-408.04    C445.948,66.056,444.264,64.16,442.06,64.032z" data-original="#000000" class="active-path" data-old_color="#000000" fill="#BCD0D4"/>
	</g>
</g><g>
	<g>
		<path d="M417.584,0H98.376C73.672,0,52,20.564,52,44.008V48c0,2.212,1.788,4,4,4s4-1.788,4-4v-3.992C60,24.824,77.932,8,98.376,8    h319.208C436.884,8,452,23.816,452,44.008V48c0,2.212,1.788,4,4,4c2.212,0,4-1.788,4-4v-3.992C460,19.332,441.368,0,417.584,0z" data-original="#000000" class="active-path" data-old_color="#000000" fill="#BCD0D4"/>
	</g>
</g><g>
	<g>
		<path d="M457.636,44H100c-2.212,0-4,1.788-4,4s1.788,4,4,4h357.636c0.588,0,2.364,0,2.368,3.944v4.064    c0,3.992-1.78,3.992-2.364,3.992H58.064C55.248,64,52,61.584,52,60.008v-4.064C52,54.388,55.248,52,58.064,52H68    c2.212,0,4-1.788,4-4s-1.788-4-4-4h-9.936C51.56,44,44,49.22,44,55.944v4.064C44,66.76,51.56,72,58.064,72h399.572    c6.2,0,10.364-4.82,10.364-11.992v-4.064C468,48.8,463.836,44,457.636,44z" data-original="#000000" class="active-path" data-old_color="#000000" fill="#BCD0D4"/>
	</g>
</g><g>
	<g>
		<path d="M436,156H140c-2.212,0-4,1.788-4,4c0,2.212,1.788,4,4,4h296c2.212,0,4-1.788,4-4C440,157.788,438.212,156,436,156z" data-original="#000000" class="active-path" data-old_color="#000000" fill="#BCD0D4"/>
	</g>
</g><g>
	<g>
		<path d="M108,156H76c-2.212,0-4,1.788-4,4c0,2.212,1.788,4,4,4h32c2.212,0,4-1.788,4-4C112,157.788,110.212,156,108,156z" data-original="#000000" class="active-path" data-old_color="#000000" fill="#BCD0D4"/>
	</g>
</g><g>
	<g>
		<path d="M420,404H156c-2.212,0-4,1.788-4,4c0,2.212,1.788,4,4,4h264c2.212,0,4-1.788,4-4C424,405.788,422.212,404,420,404z" data-original="#000000" class="active-path" data-old_color="#000000" fill="#BCD0D4"/>
	</g>
</g><g>
	<g>
		<path d="M124,404H92c-2.212,0-4,1.788-4,4c0,2.212,1.788,4,4,4h32c2.212,0,4-1.788,4-4C128,405.788,126.212,404,124,404z" data-original="#000000" class="active-path" data-old_color="#000000" fill="#BCD0D4"/>
	</g>
</g><g>
	<g>
		<path d="M257.976,187.168c-44.252,0-80.256,43.236-80.256,96.376c0,53.144,36.004,96.38,80.256,96.38    c44.256,0,80.26-43.232,80.256-96.38C338.232,230.404,302.228,187.168,257.976,187.168z M257.976,371.928    c-39.84,0-72.256-39.648-72.256-88.38s32.412-88.376,72.256-88.376s72.256,39.644,72.256,88.376    C330.232,332.28,297.816,371.928,257.976,371.928z" data-original="#000000" class="active-path" data-old_color="#000000" fill="#BCD0D4"/>
	</g>
</g><g>
	<g>
		<path d="M264.048,278.648c-8.96-10.516-17.428-20.444-21.016-35.776c-0.504-2.152-2.652-3.476-4.804-2.984    c-2.152,0.504-3.488,2.656-2.984,4.804c4.032,17.224,13.532,28.368,22.72,39.144c12.644,14.84,24.588,28.86,24.588,57.648    c0,10.696-1.676,20.052-5.12,28.604c-0.824,2.052,0.168,4.38,2.216,5.208c0.492,0.196,0.996,0.288,1.496,0.288    c1.584,0,3.084-0.944,3.708-2.504c3.836-9.516,5.7-19.852,5.7-31.596C290.552,309.748,276.472,293.228,264.048,278.648z" data-original="#000000" class="active-path" data-old_color="#000000" fill="#BCD0D4"/>
	</g>
</g><g>
	<g>
		<path d="M246.448,189.032c-1.968-1.02-4.376-0.24-5.388,1.724c-2.78,5.396-4.76,10.908-6.056,16.86    c-0.472,2.156,0.896,4.288,3.056,4.756c0.284,0.064,0.576,0.092,0.856,0.092c1.836,0,3.496-1.276,3.904-3.144    c1.152-5.264,2.904-10.14,5.352-14.9C249.184,192.452,248.408,190.04,246.448,189.032z" data-original="#000000" class="active-path" data-old_color="#000000" fill="#BCD0D4"/>
	</g>
</g></g> </svg>
