<?xml version="1.0"?>
<svg xmlns="http://www.w3.org/2000/svg" xmlns:xlink="http://www.w3.org/1999/xlink" version="1.1" id="Layer_1" x="0px" y="0px" viewBox="0 0 512 512" style="enable-background:new 0 0 512 512;" xml:space="preserve" width="512px" height="512px"><g><g>
	<g>
		<path d="M492.1,221.064c-0.72-78.9-106.336-142.944-236.052-142.944C125.892,78.12,20,142.612,20,221.88c0,2.208,1.788,4,4,4    h464.1c0.028,0,0.06,0.004,0.08,0c2.212,0,4-1.792,4.004-3.996C492.184,221.6,492.156,221.328,492.1,221.064z M28.1,217.88    c3.704-71.828,106.58-131.76,227.948-131.76S480.296,146.052,484,217.88H28.1z" data-original="#000000" class="active-path" data-old_color="#000000" fill="#BCD0D4"/>
	</g>
</g><g>
	<g>
		<path d="M476.048,285.88H244c-2.212,0-4,1.792-4,4s1.788,4,4,4h232.048c14.888,0,27.952,13.988,27.952,29.936v12.168    c0,14.764-12.016,25.896-27.952,25.896h-440C20.06,361.88,8,350.748,8,335.984v-12.168c0-15.948,13.104-29.936,28.048-29.936H168    c2.212,0,4-1.792,4-4s-1.788-4-4-4H36.048C16.844,285.88,0,303.608,0,323.816v12.168c0,19.324,15.496,33.896,36.048,33.896h440    c20.496,0,35.952-14.572,35.952-33.896v-12.168C512,303.608,495.2,285.88,476.048,285.88z" data-original="#000000" class="active-path" data-old_color="#000000" fill="#BCD0D4"/>
	</g>
</g><g>
	<g>
		<path d="M480,361.88c-2.212,0-4,1.792-4,4v33.772c0,14.952-12.04,26.228-28,26.228H64.084C48.076,425.88,36,414.604,36,399.652    V365.88c0-2.208-1.788-4-4-4s-4,1.792-4,4v33.772c0,19.192,15.848,34.228,36.084,34.228H448c20.188,0,36-15.036,36-34.228V365.88    C484,363.672,482.212,361.88,480,361.88z" data-original="#000000" class="active-path" data-old_color="#000000" fill="#BCD0D4"/>
	</g>
</g><g>
	<g>
		<path d="M245.744,290.424c-0.772-2.072-3.088-3.12-5.144-2.352l-127.304,47.42L68.2,289.032c-1.544-1.584-4.072-1.62-5.656-0.084    c-1.584,1.54-1.624,4.072-0.084,5.656l46.916,48.332c0.772,0.792,1.808,1.216,2.872,1.216c0.472,0,0.944-0.084,1.396-0.252    l129.744-48.332C245.46,294.796,246.512,292.496,245.744,290.424z" data-original="#000000" class="active-path" data-old_color="#000000" fill="#BCD0D4"/>
	</g>
</g><g>
	<g>
		<path d="M468.084,269.88H44.048c-6.896,0-12.048,7.204-12.048,13.936c0,6.116,4.908,10.064,12.5,10.064c2.212,0,4-1.792,4-4    s-1.788-4-4-4c-1.352,0-4.5-0.2-4.5-2.352c0-2.536,2.232-5.648,4.048-5.648h424.036c1.756,0,3.916,3.116,3.916,5.96    c-0.28,0.7-3.224,2.04-7,2.04c-2.212,0-4,1.792-4,4s1.788,4,4,4c7.224,0,15-3.148,15-10.352    C480,277.084,474.904,269.88,468.084,269.88z" data-original="#000000" class="active-path" data-old_color="#000000" fill="#BCD0D4"/>
	</g>
</g><g>
	<g>
		<path d="M468,217.88H44c-6.616,0-12,5.384-12,12v4c0,6.616,5.384,12,12,12h424c6.616,0,12-5.384,12-12v-4    C480,223.264,474.616,217.88,468,217.88z M472,233.88c0,2.204-1.792,4-4,4H44c-2.208,0-4-1.796-4-4v-4c0-2.204,1.792-4,4-4h424    c2.208,0,4,1.796,4,4V233.88z" data-original="#000000" class="active-path" data-old_color="#000000" fill="#BCD0D4"/>
	</g>
</g><g>
	<g>
		<path d="M480.012,251.652c-5.884,0-9.044,2.928-11.348,5.068c-1.976,1.828-3.164,2.932-5.912,2.932    c-2.752,0-3.944-1.104-5.916-2.936c-2.304-2.136-5.464-5.064-11.344-5.064c-5.884,0-9.04,2.932-11.344,5.068    c-1.976,1.828-3.164,2.932-5.908,2.932c-2.74,0-3.928-1.104-5.896-2.932c-2.304-2.14-5.456-5.068-11.336-5.068    c-5.876,0-9.032,2.928-11.336,5.068c-1.972,1.828-3.156,2.932-5.896,2.932s-3.928-1.104-5.896-2.932    c-2.304-2.14-5.46-5.068-11.34-5.068s-9.036,2.928-11.34,5.068c-1.972,1.828-3.156,2.932-5.896,2.932s-3.928-1.104-5.896-2.932    c-2.304-2.14-5.46-5.068-11.34-5.068s-9.032,2.928-11.336,5.068c-1.972,1.828-3.156,2.932-5.892,2.932    c-2.736,0-3.924-1.1-5.888-2.928c-2.3-2.144-5.456-5.072-11.332-5.072c-5.88,0-9.032,2.928-11.336,5.068    c-1.972,1.828-3.156,2.932-5.892,2.932c-2.736,0-3.924-1.104-5.888-2.932c-2.3-2.14-5.452-5.068-11.324-5.068    c-5.88,0-9.032,2.928-11.336,5.068c-1.972,1.828-3.156,2.932-5.892,2.932c-2.728,0-3.912-1.1-5.872-2.928    c-2.304-2.14-5.452-5.072-11.328-5.072c-5.88,0-9.032,2.928-11.336,5.068c-1.972,1.828-3.156,2.932-5.892,2.932    c-2.736,0-3.924-1.104-5.892-2.932c-2.304-2.14-5.456-5.068-11.332-5.068c-5.876,0-9.028,2.928-11.332,5.068    c-1.972,1.828-3.156,2.932-5.896,2.932c-2.736,0-3.924-1.1-5.888-2.928c-2.3-2.144-5.456-5.072-11.332-5.072    c-5.876,0-9.028,2.928-11.332,5.068c-1.972,1.828-3.156,2.932-5.892,2.932c-2.736,0-3.924-1.1-5.888-2.928    c-2.3-2.144-5.456-5.072-11.332-5.072c-5.88,0-9.032,2.932-11.336,5.072c-1.968,1.824-3.152,2.928-5.888,2.928    c-2.736,0-3.924-1.1-5.888-2.928c-2.3-2.144-5.452-5.072-11.328-5.072c-5.88,0-9.032,2.932-11.336,5.072    c-1.968,1.824-3.152,2.928-5.888,2.928c-2.736,0-3.924-1.1-5.888-2.928c-2.3-2.144-5.456-5.072-11.332-5.072    c-5.876,0-9.028,2.932-11.328,5.072c-1.968,1.824-3.152,2.928-5.884,2.928c-2.736,0-3.924-1.1-5.888-2.928    c-2.3-2.144-5.456-5.072-11.332-5.072c-2.212,0-4,1.792-4,4s1.788,4,4,4c2.736,0,3.924,1.1,5.888,2.928    c2.3,2.144,5.456,5.072,11.332,5.072c5.876,0,9.028-2.932,11.328-5.072c1.968-1.824,3.152-2.928,5.884-2.928    c2.736,0,3.924,1.1,5.888,2.928c2.3,2.144,5.456,5.072,11.332,5.072c5.876,0,9.028-2.928,11.332-5.068    c1.972-1.828,3.156-2.932,5.892-2.932c2.732,0,3.92,1.1,5.884,2.928c2.3,2.14,5.452,5.072,11.332,5.072    c5.876,0,9.028-2.928,11.332-5.068c1.972-1.828,3.156-2.932,5.892-2.932c2.736,0,3.924,1.1,5.888,2.928    c2.3,2.144,5.456,5.072,11.332,5.072c5.88,0,9.032-2.932,11.336-5.072c1.968-1.824,3.152-2.928,5.888-2.928s3.924,1.1,5.888,2.928    c2.3,2.144,5.456,5.072,11.332,5.072c5.88,0,9.036-2.932,11.34-5.072c1.972-1.824,3.152-2.928,5.888-2.928s3.924,1.1,5.888,2.928    c2.304,2.144,5.456,5.072,11.336,5.072s9.032-2.928,11.336-5.068c1.972-1.828,3.156-2.932,5.892-2.932    c2.728,0,3.916,1.1,5.88,2.928c2.296,2.14,5.448,5.072,11.32,5.072c5.88,0,9.032-2.928,11.336-5.068    c1.972-1.828,3.156-2.932,5.892-2.932c2.728,0,3.916,1.1,5.88,2.928c2.3,2.14,5.452,5.072,11.332,5.072s9.032-2.928,11.336-5.068    c1.972-1.828,3.156-2.932,5.892-2.932c2.736,0,3.924,1.1,5.888,2.928c2.3,2.144,5.456,5.072,11.332,5.072    c5.88,0,9.032-2.928,11.336-5.068c1.972-1.828,3.156-2.932,5.892-2.932c2.74,0,3.928,1.104,5.896,2.932    c2.304,2.14,5.46,5.068,11.34,5.068s9.036-2.928,11.34-5.068c1.972-1.828,3.156-2.932,5.896-2.932s3.928,1.104,5.896,2.932    c2.304,2.14,5.46,5.068,11.34,5.068s9.036-2.932,11.34-5.072c1.972-1.824,3.156-2.928,5.892-2.928c2.736,0,3.924,1.1,5.892,2.928    c2.304,2.144,5.46,5.072,11.34,5.072c5.884,0,9.04-2.932,11.344-5.068c1.976-1.828,3.164-2.932,5.908-2.932    c2.744,0,3.936,1.104,5.908,2.932c2.304,2.14,5.464,5.068,11.352,5.068c5.88,0,9.04-2.928,11.348-5.068    c1.976-1.828,3.164-2.932,5.912-2.932c2.212,0,4-1.792,4-4S482.224,251.652,480.012,251.652z" data-original="#000000" class="active-path" data-old_color="#000000" fill="#BCD0D4"/>
	</g>
</g><g>
	<g>
		<path d="M263.664,171.984c-2.212,0-4,1.792-4,4c0,1.992-1.62,3.616-3.616,3.616c-1.992,0-3.612-1.62-3.612-3.616    c0-1.996,1.62-3.616,3.612-3.616c2.212,0,4-1.792,4-4s-1.788-4-4-4c-6.4,0-11.612,5.212-11.612,11.616s5.208,11.616,11.612,11.616    s11.616-5.212,11.616-11.616C267.664,173.776,265.876,171.984,263.664,171.984z" data-original="#000000" class="active-path" data-old_color="#000000" fill="#BCD0D4"/>
	</g>
</g><g>
	<g>
		<path d="M367.972,139.62c-2.212,0-4,1.792-4,4c0,1.992-1.62,3.616-3.612,3.616c-1.996,0-3.616-1.624-3.616-3.616    s1.62-3.616,3.616-3.616c2.212,0,4-1.792,4-4c0-2.208-1.788-4-4-4c-6.404,0-11.616,5.212-11.616,11.616    s5.208,11.616,11.616,11.616c6.4,0,11.612-5.208,11.612-11.616C371.972,141.412,370.184,139.62,367.972,139.62z" data-original="#000000" class="active-path" data-old_color="#000000" fill="#BCD0D4"/>
	</g>
</g><g>
	<g>
		<path d="M135.772,171.924c-2.212,0-4,1.792-4,4c0,1.996-1.62,3.616-3.616,3.616c-1.996,0-3.616-1.62-3.616-3.616    c0-1.996,1.62-3.616,3.616-3.616c2.212,0,4-1.792,4-4s-1.788-4-4-4c-6.404,0-11.616,5.212-11.616,11.616    s5.208,11.616,11.616,11.616s11.616-5.212,11.616-11.616C139.772,173.716,137.984,171.924,135.772,171.924z" data-original="#000000" class="active-path" data-old_color="#000000" fill="#BCD0D4"/>
	</g>
</g><g>
	<g>
		<path d="M199.628,123.744c-2.212,0-4,1.792-4,4c0,1.996-1.62,3.616-3.612,3.616c-1.996,0-3.616-1.62-3.616-3.616    c0-1.996,1.62-3.616,3.616-3.616c2.212,0,4-1.792,4-4s-1.788-4-4-4c-6.404,0-11.616,5.212-11.616,11.616    s5.208,11.616,11.616,11.616c6.4,0,11.612-5.212,11.612-11.616C203.628,125.536,201.84,123.744,199.628,123.744z" data-original="#000000" class="active-path" data-old_color="#000000" fill="#BCD0D4"/>
	</g>
</g><g>
	<g>
		<circle cx="244.08" cy="127.74" r="4" data-original="#000000" class="active-path" data-old_color="#000000" fill="#BCD0D4"/>
	</g>
</g><g>
	<g>
		<circle cx="144" cy="136" r="4" data-original="#000000" class="active-path" data-old_color="#000000" fill="#BCD0D4"/>
	</g>
</g><g>
	<g>
		<circle cx="187.66" cy="180" r="4" data-original="#000000" class="active-path" data-old_color="#000000" fill="#BCD0D4"/>
	</g>
</g><g>
	<g>
		<circle cx="300.32" cy="116" r="4" data-original="#000000" class="active-path" data-old_color="#000000" fill="#BCD0D4"/>
	</g>
</g><g>
	<g>
		<circle cx="308.16" cy="167.64" r="4" data-original="#000000" class="active-path" data-old_color="#000000" fill="#BCD0D4"/>
	</g>
</g><g>
	<g>
		<circle cx="380.08" cy="195.72" r="4" data-original="#000000" class="active-path" data-old_color="#000000" fill="#BCD0D4"/>
	</g>
</g><g>
	<g>
		<circle cx="412.12" cy="159.74" r="4" data-original="#000000" class="active-path" data-old_color="#000000" fill="#BCD0D4"/>
	</g>
</g><g>
	<g>
		<circle cx="80" cy="191.72" r="4" data-original="#000000" class="active-path" data-old_color="#000000" fill="#BCD0D4"/>
	</g>
</g></g> </svg>
