<?xml version="1.0"?>
<svg xmlns="http://www.w3.org/2000/svg" xmlns:xlink="http://www.w3.org/1999/xlink" version="1.1" id="Capa_1" x="0px" y="0px" viewBox="0 0 447.963 447.963" style="enable-background:new 0 0 447.963 447.963;" xml:space="preserve" width="512px" height="512px" class=""><g transform="matrix(-1 1.22465e-16 -1.22465e-16 -1 447.963 447.963)"><g>
	<path d="M396.471,37.21c-0.713-1.714-2.077-3.074-3.793-3.782C337.665,10.733,279.836-0.502,220.83,0.017   C163.832,0.525,108.128,11.929,55.265,33.915c-1.714,0.713-3.074,2.077-3.782,3.793c-0.708,1.717-0.705,3.644,0.008,5.358   l166.604,400.585c1.086,2.61,3.636,4.312,6.463,4.312c0.003,0,0.007,0,0.01,0c2.831-0.004,5.382-1.713,6.461-4.33l165.45-401.064   C397.187,40.851,397.184,38.924,396.471,37.21z M165.398,280.489c2.81-0.51,5.67-0.775,8.562-0.775   c26.308,0,47.71,21.398,47.71,47.7c0,15.9-7.686,30.333-20.461,39.179L165.398,280.489z M224.532,422.671l-17.855-42.932   c17.801-11.2,28.994-31.081,28.994-52.324c0-34.021-27.683-61.7-61.71-61.7c-4.758,0-9.454,0.552-14.033,1.62L80.855,77.213   c92.614-33.058,193.689-33.115,286.254-0.16l-21.663,52.513c-14.536-13.552-31.615-24.413-49.948-31.67   c-8.567-3.392-17.942-3.246-26.399,0.412c-8.458,3.658-14.984,10.392-18.376,18.959s-3.246,17.943,0.412,26.4   c3.658,8.458,10.392,14.984,18.959,18.376c19.326,7.652,35.366,21.759,45.496,39.897L224.532,422.671z M339.707,143.476   l-17.566,42.58c-11.636-16.59-27.894-29.506-46.895-37.03c-5.089-2.015-9.089-5.892-11.263-10.917   c-2.174-5.024-2.261-10.597-0.244-15.688c2.015-5.09,5.892-9.09,10.916-11.263c5.026-2.174,10.598-2.261,15.688-0.244   C308.688,118.174,325.666,129.389,339.707,143.476z M372.452,64.1c-96.006-34.351-200.921-34.29-296.979,0.174l-8.347-20.069   c49.252-19.565,100.965-29.718,153.828-30.188c54.833-0.488,108.572,9.512,159.892,29.734L372.452,64.1z" data-original="#000000" class="active-path" data-old_color="#000000" fill="#6DC33D"/>
	<path d="M201.062,157.874L201.062,157.874c5.821,2.251,12.349,1.452,17.465-2.144c5.058-3.554,7.992-9.348,7.849-15.498   c-0.46-19.743-12.659-37.104-31.078-44.23c-18.419-7.127-39.125-2.495-52.753,11.797c-4.246,4.452-5.975,10.713-4.626,16.746   c1.364,6.1,5.654,11.086,11.474,13.338l2.145,0.83l-5.684,14.691c-1.395,3.605,0.397,7.659,4.003,9.054l34.325,13.28   c0.83,0.321,1.684,0.474,2.523,0.474c2.808,0,5.457-1.701,6.53-4.477l5.685-14.69L201.062,157.874z M192.087,141.588   c-1.698,0.751-3.028,2.146-3.698,3.877l-5.685,14.69l-21.269-8.229l5.684-14.691c1.395-3.605-0.396-7.659-4.002-9.054l-8.673-3.355   c-2.091-0.81-2.698-2.604-2.862-3.337c-0.195-0.871-0.312-2.554,1.096-4.029c9.705-10.179,24.452-13.476,37.569-8.401   c13.117,5.075,21.805,17.439,22.133,31.5c0.048,2.038-1.171,3.204-1.901,3.717c-0.616,0.433-2.271,1.354-4.363,0.542l-8.672-3.355   C195.711,140.792,193.785,140.838,192.087,141.588z" data-original="#000000" class="active-path" data-old_color="#000000" fill="#6DC33D"/>
	<path d="M271.081,219.257l1.899-1.296c5.154-3.519,8.196-9.351,8.135-15.602c-0.06-6.182-3.169-11.884-8.317-15.252   c-16.523-10.814-37.741-10.608-54.055,0.524c-16.312,11.134-24.236,30.816-20.188,50.146c1.261,6.021,5.438,10.995,11.172,13.305   c5.798,2.333,12.338,1.629,17.493-1.891l1.898-1.296l8.879,13.012c1.047,1.533,2.659,2.588,4.484,2.933   c0.431,0.081,0.865,0.121,1.298,0.121c1.397,0,2.774-0.419,3.946-1.218l30.4-20.747c1.533-1.047,2.588-2.66,2.933-4.484   c0.344-1.824-0.051-3.71-1.097-5.244L271.081,219.257z M265.088,206.397C265.088,206.397,265.088,206.397,265.088,206.397   l-7.681,5.243c-3.193,2.179-4.015,6.534-1.836,9.728l8.881,13.011l-18.837,12.855l-8.879-13.012   c-1.047-1.533-2.66-2.588-4.484-2.933c-0.431-0.081-0.865-0.121-1.298-0.121c-1.397,0-2.775,0.419-3.946,1.219l-7.681,5.241   c-1.854,1.265-3.676,0.747-4.372,0.467c-0.828-0.333-2.279-1.19-2.697-3.187c-2.883-13.766,2.761-27.784,14.378-35.712   c11.616-7.93,26.728-8.076,38.496-0.374c1.706,1.116,1.976,2.78,1.984,3.673C267.124,203.248,266.94,205.133,265.088,206.397z" data-original="#000000" class="active-path" data-old_color="#000000" fill="#6DC33D"/>
	<path d="M225.791,99.741c10.477,0,18.999-8.522,18.999-18.999s-8.522-18.999-18.999-18.999s-18.999,8.522-18.999,18.999   S215.314,99.741,225.791,99.741z M225.791,75.743c2.757,0,4.999,2.242,4.999,4.999s-2.242,4.999-4.999,4.999   s-4.999-2.242-4.999-4.999S223.034,75.743,225.791,75.743z" data-original="#000000" class="active-path" data-old_color="#000000" fill="#6DC33D"/>
	<path d="M164.294,184.736c-10.477,0-18.999,8.523-18.999,19s8.522,18.999,18.999,18.999s18.999-8.522,18.999-18.999   S174.77,184.736,164.294,184.736z M164.294,208.735c-2.757,0-4.999-2.242-4.999-4.999s2.242-5,4.999-5s4.999,2.243,4.999,5   S167.051,208.735,164.294,208.735z" data-original="#000000" class="active-path" data-old_color="#000000" fill="#6DC33D"/>
	<path d="M252.984,270.987c-10.477,0-18.999,8.522-18.999,18.999s8.522,18.999,18.999,18.999s19-8.522,19-18.999   S263.461,270.987,252.984,270.987z M252.984,294.985c-2.757,0-4.999-2.242-4.999-4.999s2.242-4.999,4.999-4.999s5,2.242,5,4.999   S255.741,294.985,252.984,294.985z" data-original="#000000" class="active-path" data-old_color="#000000" fill="#6DC33D"/>
</g></g> </svg>
